<svg width="0" height="0" class="hidden">
<symbol  viewBox="0 0 100 40" fill="none" xmlns="http://www.w3.org/2000/svg" id="logo">
<path d="M6.99223 24.2324H0.262933L9.40788 0H16.3097L25.4547 24.2324H18.7254L17.1725 19.9052H8.54515L6.99223 24.2324ZM10.0981 15.4049H15.6195L12.8588 7.26973L10.0981 15.4049Z" fill="#07060B"/>
<path d="M42.0339 0H48.2456V17.6551C48.2456 20.0783 47.6934 21.8438 46.5891 22.9516C45.5079 24.0363 43.7594 24.5786 41.3437 24.5786H33.4066C30.991 24.5786 29.231 24.0363 28.1267 22.9516C27.0454 21.8438 26.5048 20.0783 26.5048 17.6551V0H32.7164V17.6551C32.7164 19.0398 33.4066 19.7321 34.787 19.7321H39.9634C41.3438 19.7321 42.0339 19.0398 42.0339 17.6551V0Z" fill="#07060B"/>
<path d="M52.3867 0H66.8806C69.2962 0 71.0447 0.553884 72.126 1.66165C73.2303 2.74634 73.7824 4.50031 73.7824 6.92355V10.0392C73.7824 11.9547 73.4603 13.4432 72.8162 14.5048C72.195 15.5665 71.1942 16.2703 69.8139 16.6165L74.1275 24.2324H67.3982L63.4297 16.9627H58.5984V24.2324H52.3867V0ZM67.5708 6.92355C67.5708 5.53884 66.8806 4.84649 65.5002 4.84649H58.5984V12.1162H65.5002C66.8806 12.1162 67.5708 11.4239 67.5708 10.0392V6.92355Z" fill="#07060B"/>
<path d="M81.5376 24.2324H74.8083L83.9532 0H90.8551L100 24.2324H93.2707L91.7178 19.9052H83.0905L81.5376 24.2324ZM84.6434 15.4049H90.1649L87.4041 7.26973L84.6434 15.4049Z" fill="#07060B"/>
<path d="M0.106814 38.3927C1.55237 38.4999 2.69172 38.5535 3.52487 38.5535C3.63169 38.5535 3.7207 38.5178 3.79191 38.4463C3.86312 38.3749 3.89872 38.2856 3.89872 38.1784V37.8034H1.60221C1.11799 37.8034 0.729898 37.657 0.437939 37.3641C0.145979 37.0712 0 36.6819 0 36.1962V35.8211C0 35.3354 0.145979 34.9461 0.437939 34.6532C0.729898 34.3603 1.11799 34.2139 1.60221 34.2139H5.2339V35.6068H2.2431C2.13629 35.6068 2.04727 35.6426 1.97606 35.714C1.90485 35.7854 1.86925 35.8747 1.86925 35.9819C1.86925 36.089 1.90485 36.1783 1.97606 36.2497C2.04727 36.3212 2.13629 36.3569 2.2431 36.3569H4.16576C4.64998 36.3569 5.03807 36.5033 5.33003 36.7962C5.62199 37.0891 5.76797 37.4784 5.76797 37.9641V38.3927C5.76797 38.8785 5.62199 39.2678 5.33003 39.5607C5.03807 39.8536 4.64998 40 4.16576 40C2.90535 40 1.55237 39.9286 0.106814 39.7857V38.3927Z" fill="#07060B"/>
<path d="M10.4686 39.8928C9.7779 39.9643 9.10141 40 8.43916 40C7.95494 40 7.56685 39.8536 7.27489 39.5607C6.98293 39.2678 6.83695 38.8785 6.83695 38.3927V35.6604H6.19606V34.2139H6.83695L7.05058 32.9281H8.7062V34.2139H10.0414V35.6604H8.7062V38.1249C8.7062 38.232 8.7418 38.3213 8.81301 38.3927C8.88422 38.4642 8.97324 38.4999 9.08005 38.4999H10.4686V39.8928Z" fill="#07060B"/>
<path d="M13.3622 34.4282V39.8928H11.493V35.8747H10.6919V34.4282H13.3622ZM11.493 32.2852H13.3622V33.7853H11.493V32.2852Z" fill="#07060B"/>
<path d="M19.454 39.7857C18.1224 39.9286 16.9474 40 15.9291 40C15.4449 40 15.0568 39.8536 14.7648 39.5607C14.4729 39.2678 14.3269 38.8785 14.3269 38.3927V35.9283C14.3269 35.3925 14.4764 34.9747 14.7755 34.6746C15.0817 34.3675 15.5018 34.2139 16.0359 34.2139H19.454V35.6604H16.6234C16.3386 35.6604 16.1961 35.8033 16.1961 36.089V38.1784C16.1961 38.2856 16.2317 38.3749 16.3029 38.4463C16.3742 38.5178 16.4632 38.5535 16.57 38.5535C17.2109 38.5535 18.1722 38.4999 19.454 38.3927V39.7857Z" fill="#07060B"/>
<path d="M22.1756 37.6427V39.8928H20.3064V32.3923H22.1756V36.1962H23.0302L24.2051 34.2139H26.1812L24.579 36.9462L26.1812 39.8928H24.2051L22.9768 37.6427H22.1756Z" fill="#07060B"/>
<path d="M28.7965 35.4461C28.5116 35.4461 28.3692 35.589 28.3692 35.8747V36.464H30.1851V35.8747C30.1851 35.589 30.0426 35.4461 29.7578 35.4461H28.7965ZM31.8407 39.7857C30.4663 39.9286 29.2202 40 28.1022 40C27.6179 40 27.2299 39.8536 26.9379 39.5607C26.6459 39.2678 26.5 38.8785 26.5 38.3927V35.8211C26.5 35.2854 26.6495 34.8675 26.9486 34.5675C27.2548 34.2603 27.6749 34.1067 28.209 34.1067H30.3453C30.8793 34.1067 31.2959 34.2603 31.595 34.5675C31.9012 34.8675 32.0543 35.2854 32.0543 35.8211V37.8034H28.3692V38.232C28.3692 38.3392 28.4048 38.4285 28.476 38.4999C28.5472 38.5713 28.6362 38.607 28.7431 38.607C29.448 38.607 30.4806 38.5535 31.8407 38.4463V39.7857Z" fill="#07060B"/>
<path d="M36.2693 35.7676C35.8207 35.7676 35.3578 35.8747 34.8807 36.089V39.8928H33.0115V34.2139H34.6671L34.7739 34.9104C35.3863 34.3746 36.0272 34.1067 36.6965 34.1067H37.1772V35.7676H36.2693Z" fill="#07060B"/>
<path d="M37.7109 38.3927C39.1564 38.4999 40.2958 38.5535 41.1289 38.5535C41.2357 38.5535 41.3248 38.5178 41.396 38.4463C41.4672 38.3749 41.5028 38.2856 41.5028 38.1784V37.8034H39.2063C38.722 37.8034 38.334 37.657 38.042 37.3641C37.75 37.0712 37.6041 36.6819 37.6041 36.1962V35.8211C37.6041 35.3354 37.75 34.9461 38.042 34.6532C38.334 34.3603 38.722 34.2139 39.2063 34.2139H42.838V35.6068H39.8472C39.7403 35.6068 39.6513 35.6426 39.5801 35.714C39.5089 35.7854 39.4733 35.8747 39.4733 35.9819C39.4733 36.089 39.5089 36.1783 39.5801 36.2497C39.6513 36.3212 39.7403 36.3569 39.8472 36.3569H41.7698C42.254 36.3569 42.6421 36.5033 42.9341 36.7962C43.226 37.0891 43.372 37.4784 43.372 37.9641V38.3927C43.372 38.8785 43.226 39.2678 42.9341 39.5607C42.6421 39.8536 42.254 40 41.7698 40C40.5094 40 39.1564 39.9286 37.7109 39.7857V38.3927Z" fill="#07060B"/>
<path d="M52.3432 39.7857C51.0116 39.9286 49.8366 40 48.8183 40C48.3341 40 47.946 39.8536 47.654 39.5607C47.3621 39.2678 47.2161 38.8785 47.2161 38.3927V35.9283C47.2161 35.3925 47.3656 34.9747 47.6647 34.6746C47.9709 34.3675 48.391 34.2139 48.9251 34.2139H52.3432V35.6604H49.5126C49.2278 35.6604 49.0853 35.8033 49.0853 36.089V38.1784C49.0853 38.2856 49.1209 38.3749 49.1922 38.4463C49.2634 38.5178 49.3524 38.5535 49.4592 38.5535C50.1001 38.5535 51.0614 38.4999 52.3432 38.3927V39.7857Z" fill="#07060B"/>
<path d="M58.9636 38.2856C58.9636 38.8214 58.8105 39.2428 58.5043 39.55C58.2052 39.85 57.7886 40 57.2545 40H54.7978C54.2637 40 53.8436 39.85 53.5374 39.55C53.2383 39.2428 53.0888 38.8214 53.0888 38.2856V35.8211C53.0888 35.2854 53.2383 34.8675 53.5374 34.5675C53.8436 34.2603 54.2637 34.1067 54.7978 34.1067H57.2545C57.7886 34.1067 58.2052 34.2603 58.5043 34.5675C58.8105 34.8675 58.9636 35.2854 58.9636 35.8211V38.2856ZM57.0943 35.9819C57.0943 35.6961 56.9519 35.5533 56.6671 35.5533H55.3853C55.1005 35.5533 54.958 35.6961 54.958 35.9819V38.1249C54.958 38.4106 55.1005 38.5535 55.3853 38.5535H56.6671C56.9519 38.5535 57.0943 38.4106 57.0943 38.1249V35.9819Z" fill="#07060B"/>
<path d="M62.8076 39.8928C62.3305 39.9643 61.8748 40 61.4404 40C61.0132 40 60.6535 39.8536 60.3616 39.5607C60.0696 39.2678 59.9236 38.8785 59.9236 38.3927V32.3923H61.7929V38.1249C61.7929 38.232 61.8285 38.3213 61.8997 38.3927C61.9709 38.4642 62.0599 38.4999 62.1667 38.4999H62.8076V39.8928Z" fill="#07060B"/>
<path d="M66.4377 39.8928C65.9605 39.9643 65.5048 40 65.0704 40C64.6432 40 64.2836 39.8536 63.9916 39.5607C63.6996 39.2678 63.5537 38.8785 63.5537 38.3927V32.3923H65.4229V38.1249C65.4229 38.232 65.4585 38.3213 65.5297 38.3927C65.6009 38.4642 65.6899 38.4999 65.7968 38.4999H66.4377V39.8928Z" fill="#07060B"/>
<path d="M69.3734 35.4461C69.0885 35.4461 68.9461 35.589 68.9461 35.8747V36.464H70.762V35.8747C70.762 35.589 70.6195 35.4461 70.3347 35.4461H69.3734ZM72.4176 39.7857C71.0432 39.9286 69.7971 40 68.6791 40C68.1949 40 67.8068 39.8536 67.5148 39.5607C67.2228 39.2678 67.0769 38.8785 67.0769 38.3927V35.8211C67.0769 35.2854 67.2264 34.8675 67.5255 34.5675C67.8317 34.2603 68.2518 34.1067 68.7859 34.1067H70.9222C71.4563 34.1067 71.8728 34.2603 72.1719 34.5675C72.4781 34.8675 72.6312 35.2854 72.6312 35.8211V37.8034H68.9461V38.232C68.9461 38.3392 68.9817 38.4285 69.0529 38.4999C69.1241 38.5713 69.2132 38.607 69.32 38.607C70.0249 38.607 71.0575 38.5535 72.4176 38.4463V39.7857Z" fill="#07060B"/>
<path d="M78.6086 39.7857C77.277 39.9286 76.1021 40 75.0838 40C74.5995 40 74.2115 39.8536 73.9195 39.5607C73.6275 39.2678 73.4816 38.8785 73.4816 38.3927V35.9283C73.4816 35.3925 73.6311 34.9747 73.9302 34.6746C74.2364 34.3675 74.6565 34.2139 75.1906 34.2139H78.6086V35.6604H75.7781C75.4932 35.6604 75.3508 35.8033 75.3508 36.089V38.1784C75.3508 38.2856 75.3864 38.3749 75.4576 38.4463C75.5288 38.5178 75.6178 38.5535 75.7247 38.5535C76.3655 38.5535 77.3269 38.4999 78.6086 38.3927V39.7857Z" fill="#07060B"/>
<path d="M83.4132 39.8928C82.7225 39.9643 82.046 40 81.3837 40C80.8995 40 80.5114 39.8536 80.2194 39.5607C79.9275 39.2678 79.7815 38.8785 79.7815 38.3927V35.6604H79.1406V34.2139H79.7815L79.9951 32.9281H81.6508V34.2139H82.9859V35.6604H81.6508V38.1249C81.6508 38.232 81.6864 38.3213 81.7576 38.3927C81.8288 38.4642 81.9178 38.4999 82.0246 38.4999H83.4132V39.8928Z" fill="#07060B"/>
<path d="M86.3068 34.4282V39.8928H84.4375V35.8747H83.6364V34.4282H86.3068ZM84.4375 32.2852H86.3068V33.7853H84.4375V32.2852Z" fill="#07060B"/>
<path d="M93.1462 38.2856C93.1462 38.8214 92.9931 39.2428 92.6869 39.55C92.3878 39.85 91.9713 40 91.4372 40H88.9805C88.4464 40 88.0263 39.85 87.7201 39.55C87.421 39.2428 87.2714 38.8214 87.2714 38.2856V35.8211C87.2714 35.2854 87.421 34.8675 87.7201 34.5675C88.0263 34.2603 88.4464 34.1067 88.9805 34.1067H91.4372C91.9713 34.1067 92.3878 34.2603 92.6869 34.5675C92.9931 34.8675 93.1462 35.2854 93.1462 35.8211V38.2856ZM91.277 35.9819C91.277 35.6961 91.1346 35.5533 90.8497 35.5533H89.568C89.2831 35.5533 89.1407 35.6961 89.1407 35.9819V38.1249C89.1407 38.4106 89.2831 38.5535 89.568 38.5535H90.8497C91.1346 38.5535 91.277 38.4106 91.277 38.1249V35.9819Z" fill="#07060B"/>
<path d="M97.2573 35.6604C96.8799 35.6604 96.4527 35.7318 95.9756 35.8747V39.8928H94.1063V34.2139H95.7619L95.8687 34.7496C96.2034 34.5282 96.5452 34.3675 96.8942 34.2675C97.2502 34.1603 97.5493 34.1067 97.7914 34.1067H98.2721C98.7563 34.1067 99.1444 34.2532 99.4363 34.5461C99.7283 34.8389 99.8743 35.2282 99.8743 35.714V39.8928H98.005V36.0354C98.005 35.9283 97.9694 35.839 97.8982 35.7676C97.827 35.6961 97.738 35.6604 97.6312 35.6604H97.2573Z" fill="#07060B"/>
</symbol>
<symbol  viewBox="0 0 132 50" fill="none" xmlns="http://www.w3.org/2000/svg" id="blackbutton">
<rect width="132" height="50" rx="25" fill="#07060B"/>
<path d="M35.2719 29H32.8719V17.8H35.2719V22.248H37.0799L39.9119 17.8H42.5839L38.9519 23.256L42.7919 29H40.1359L37.0799 24.424H35.2719V29ZM43.8534 28.152C43.032 27.4373 42.6214 26.44 42.6214 25.16C42.6214 23.88 43.032 22.8827 43.8534 22.168C44.6747 21.4533 45.6774 21.096 46.8614 21.096C48.056 21.096 49.0587 21.4533 49.8694 22.168C50.6907 22.8827 51.1014 23.88 51.1014 25.16C51.1014 26.44 50.6907 27.4373 49.8694 28.152C49.0587 28.8667 48.056 29.224 46.8614 29.224C45.6774 29.224 44.6747 28.8667 43.8534 28.152ZM48.3174 26.664C48.6694 26.2693 48.8454 25.768 48.8454 25.16C48.8454 24.552 48.6694 24.056 48.3174 23.672C47.9654 23.2773 47.48 23.08 46.8614 23.08C46.2427 23.08 45.7574 23.2773 45.4054 23.672C45.064 24.056 44.8934 24.552 44.8934 25.16C44.8934 25.768 45.064 26.2693 45.4054 26.664C45.7574 27.048 46.2427 27.24 46.8614 27.24C47.48 27.24 47.9654 27.048 48.3174 26.664ZM63.6894 29H52.5534V21.32H54.7774V27.128H57.0174V21.32H59.2254V27.128H61.4814V21.32H63.6894V29ZM65.1526 25.16C65.1526 24.4667 65.2753 23.8533 65.5206 23.32C65.766 22.776 66.086 22.3493 66.4806 22.04C66.886 21.7307 67.3073 21.496 67.7446 21.336C68.1926 21.176 68.646 21.096 69.1046 21.096C69.8726 21.096 70.534 21.24 71.0886 21.528C71.654 21.816 72.07 22.1893 72.3366 22.648C72.6033 23.096 72.7846 23.608 72.8806 24.184C72.9873 24.7493 72.9606 25.3147 72.8006 25.88H67.3926C67.51 26.4133 67.8193 26.8133 68.3206 27.08C68.822 27.336 69.414 27.464 70.0966 27.464C70.9393 27.464 71.7126 27.3093 72.4166 27V28.744C71.6593 29.064 70.7206 29.224 69.6006 29.224C68.3206 29.224 67.2593 28.8667 66.4166 28.152C65.574 27.4373 65.1526 26.44 65.1526 25.16ZM70.8006 24.44C70.854 24.088 70.7526 23.7253 70.4966 23.352C70.2406 22.9787 69.8033 22.792 69.1846 22.792C68.694 22.792 68.2726 22.9413 67.9206 23.24C67.5686 23.528 67.3873 23.928 67.3766 24.44H70.8006ZM77.7114 23.08C77.6474 24.0187 77.5567 24.8293 77.4394 25.512C77.3327 26.184 77.1727 26.8133 76.9594 27.4C76.746 27.976 76.458 28.4133 76.0954 28.712C75.7327 29.0107 75.2954 29.16 74.7834 29.16C74.3887 29.16 73.9834 29.0853 73.5674 28.936V27.176C73.7274 27.24 73.882 27.272 74.0314 27.272C74.586 27.272 74.9754 26.776 75.1994 25.784C75.4234 24.792 75.578 23.304 75.6634 21.32H81.9034V29H79.6794V23.08H77.7114ZM89.8678 18.344C90.1024 18.5787 90.2198 18.8613 90.2198 19.192C90.2198 19.5227 90.1024 19.8053 89.8678 20.04C89.6438 20.264 89.3664 20.376 89.0358 20.376C88.7051 20.376 88.4224 20.264 88.1878 20.04C87.9531 19.8053 87.8358 19.5227 87.8358 19.192C87.8358 18.8613 87.9531 18.5787 88.1878 18.344C88.4224 18.1093 88.7051 17.992 89.0358 17.992C89.3664 17.992 89.6438 18.1093 89.8678 18.344ZM86.4438 18.344C86.6784 18.5787 86.7958 18.8613 86.7958 19.192C86.7958 19.5227 86.6784 19.8053 86.4438 20.04C86.2198 20.264 85.9424 20.376 85.6118 20.376C85.2811 20.376 84.9984 20.264 84.7638 20.04C84.5291 19.8053 84.4118 19.5227 84.4118 19.192C84.4118 18.8613 84.5291 18.5787 84.7638 18.344C84.9984 18.1093 85.2811 17.992 85.6118 17.992C85.9424 17.992 86.2198 18.1093 86.4438 18.344ZM83.3558 25.16C83.3558 24.4667 83.4784 23.8533 83.7238 23.32C83.9691 22.776 84.2891 22.3493 84.6838 22.04C85.0891 21.7307 85.5104 21.496 85.9478 21.336C86.3958 21.176 86.8491 21.096 87.3078 21.096C88.0758 21.096 88.7371 21.24 89.2918 21.528C89.8571 21.816 90.2731 22.1893 90.5398 22.648C90.8064 23.096 90.9878 23.608 91.0838 24.184C91.1904 24.7493 91.1638 25.3147 91.0038 25.88H85.5958C85.7131 26.4133 86.0224 26.8133 86.5238 27.08C87.0251 27.336 87.6171 27.464 88.2998 27.464C89.1424 27.464 89.9158 27.3093 90.6198 27V28.744C89.8624 29.064 88.9238 29.224 87.8038 29.224C86.5238 29.224 85.4624 28.8667 84.6198 28.152C83.7771 27.4373 83.3558 26.44 83.3558 25.16ZM89.0038 24.44C89.0571 24.088 88.9558 23.7253 88.6998 23.352C88.4438 22.9787 88.0064 22.792 87.3878 22.792C86.8971 22.792 86.4758 22.9413 86.1238 23.24C85.7718 23.528 85.5904 23.928 85.5798 24.44H89.0038ZM94.7305 29H92.5065V21.32H94.7305V24.184H95.6585L97.6105 21.32H100.107L97.4665 25.112L100.331 29H97.8345L95.6265 25.96H94.7305V29Z" fill="white"/>
</symbol>
<symbol  viewBox="0 0 57 74" fill="none" xmlns="http://www.w3.org/2000/svg" id="hour">
<path d="M5.76 32.968C3.296 29.8 2.064 25.704 2.064 20.68C2.064 15.656 3.296 11.576 5.76 8.44C8.256 5.272 11.984 3.688 16.944 3.688C21.904 3.688 25.616 5.272 28.08 8.44C30.576 11.576 31.824 15.656 31.824 20.68C31.824 25.704 30.576 29.8 28.08 32.968C25.616 36.104 21.904 37.672 16.944 37.672C11.984 37.672 8.256 36.104 5.76 32.968ZM16.944 31.336C22.064 31.336 24.624 27.784 24.624 20.68C24.624 13.576 22.064 10.024 16.944 10.024C11.824 10.024 9.264 13.576 9.264 20.68C9.264 27.784 11.824 31.336 16.944 31.336ZM44.2586 4.36H49.4906V30.808H54.9626V37H36.3386V30.808H42.4826V11.56L36.3386 13.864V7.384L44.2586 4.36Z" fill="white"/>
<path d="M23.44 70H20.44V64.98C19.2 65.38 18.02 65.58 16.9 65.58C15.3 65.5667 14.0467 65.1533 13.14 64.34C12.2333 63.5267 11.78 62.3333 11.78 60.76V56H14.78V60.66C14.78 61.3933 15.04 61.94 15.56 62.3C16.08 62.66 16.78 62.84 17.66 62.84C18.5933 62.84 19.52 62.6533 20.44 62.28V56H23.44V70ZM34.5491 67.52C34.5491 67.9467 34.7757 68.16 35.2291 68.16C35.4157 68.16 35.5891 68.1333 35.7491 68.08V69.9C35.2424 70.0867 34.7291 70.18 34.2091 70.18C33.1957 70.18 32.4891 69.82 32.0891 69.1C31.0891 69.8867 29.9357 70.28 28.6291 70.28C27.6824 70.28 26.8824 70.02 26.2291 69.5C25.5891 68.9667 25.2691 68.2467 25.2691 67.34C25.2691 66.58 25.4957 65.9467 25.9491 65.44C26.4024 64.9333 26.9291 64.5933 27.5291 64.42C28.1291 64.2333 28.7824 64.14 29.4891 64.14C30.2757 64.14 31.0357 64.2267 31.7691 64.4V64.06C31.7691 63.5667 31.5757 63.1733 31.1891 62.88C30.8024 62.5867 30.2424 62.44 29.5091 62.44C28.4424 62.44 27.3091 62.68 26.1091 63.16V60.76C27.3891 60.3333 28.6291 60.12 29.8291 60.12C32.9757 60.12 34.5491 61.5667 34.5491 64.46V67.52ZM30.1291 65.8C29.5557 65.8 29.0757 65.9067 28.6891 66.12C28.3024 66.3333 28.1091 66.6667 28.1091 67.12C28.1091 67.4667 28.2491 67.7533 28.5291 67.98C28.8224 68.1933 29.1824 68.3 29.6091 68.3C30.4491 68.3 31.1691 68.04 31.7691 67.52V66.02C31.1557 65.8733 30.6091 65.8 30.1291 65.8ZM36.6986 65.34C36.6986 64.46 36.8519 63.6733 37.1586 62.98C37.4786 62.2867 37.8986 61.74 38.4186 61.34C38.9386 60.9267 39.5119 60.62 40.1386 60.42C40.7653 60.2067 41.4253 60.1 42.1186 60.1C43.2253 60.1 44.2119 60.3333 45.0786 60.8V63.24C44.3319 62.76 43.4786 62.52 42.5186 62.52C41.6786 62.52 40.9719 62.74 40.3986 63.18C39.8253 63.62 39.5386 64.2933 39.5386 65.2C39.5386 66.0667 39.8253 66.7333 40.3986 67.2C40.9719 67.6533 41.6653 67.88 42.4786 67.88C43.5053 67.88 44.4053 67.6467 45.1786 67.18V69.64C44.1786 70.0667 43.0986 70.28 41.9386 70.28C40.4986 70.28 39.2653 69.86 38.2386 69.02C37.2119 68.1667 36.6986 66.94 36.6986 65.34Z" fill="white"/>
</symbol>
<symbol  viewBox="0 0 64 74" fill="none" xmlns="http://www.w3.org/2000/svg" id="minute">
<path d="M17.904 4.36H25.056V25.048H30V31.048H25.056V37H18.192V31.048H1.056V25.096L17.904 4.36ZM18.192 25.048V13.144L8.544 25.048H18.192ZM34.6211 12.712C34.6211 10.28 35.6771 8.168 37.7891 6.376C39.9011 4.584 43.0371 3.688 47.1971 3.688C51.1331 3.688 54.2211 4.616 56.4611 6.472C58.7011 8.296 59.8371 10.44 59.8691 12.904C59.9011 15.848 58.5251 18.36 55.7411 20.44C59.2931 22.2 61.0691 24.776 61.0691 28.168C61.0691 30.824 59.9171 33.08 57.6131 34.936C55.3411 36.76 51.9011 37.672 47.2931 37.672C42.7171 37.672 39.2611 36.728 36.9251 34.84C34.5891 32.952 33.4211 30.648 33.4211 27.928C33.4211 26.296 33.8851 24.76 34.8131 23.32C35.7411 21.848 36.9731 20.648 38.5091 19.72C35.9171 17.96 34.6211 15.624 34.6211 12.712ZM48.0131 23.56C47.5651 23.4 46.7811 23.144 45.6611 22.792C44.5731 22.44 43.7411 22.152 43.1651 21.928C41.4051 23.4 40.5571 25.112 40.6211 27.064C40.6531 28.536 41.2611 29.736 42.4451 30.664C43.6611 31.56 45.4531 32.008 47.8211 32.008C49.5811 32.008 51.0371 31.672 52.1891 31C53.3411 30.328 53.9171 29.448 53.9171 28.36C53.9171 27.816 53.8051 27.32 53.5811 26.872C53.3571 26.424 53.1011 26.072 52.8131 25.816C52.5251 25.528 52.0611 25.24 51.4211 24.952C50.8131 24.632 50.3011 24.392 49.8851 24.232C49.5011 24.072 48.8771 23.848 48.0131 23.56ZM52.9571 13.432C52.9571 12.248 52.4291 11.272 51.3731 10.504C50.3491 9.736 48.8611 9.352 46.9091 9.352C45.2451 9.352 43.9171 9.688 42.9251 10.36C41.9651 11 41.4851 11.8 41.4851 12.76C41.4851 13.304 41.6131 13.816 41.8691 14.296C42.1251 14.744 42.3971 15.112 42.6851 15.4C42.9731 15.688 43.4531 15.992 44.1251 16.312C44.7971 16.6 45.3251 16.824 45.7091 16.984C46.0931 17.112 46.7331 17.32 47.6291 17.608C47.9811 17.704 48.4931 17.864 49.1651 18.088C49.8691 18.28 50.3651 18.408 50.6531 18.472C52.2531 16.872 53.0211 15.192 52.9571 13.432Z" fill="white"/>
<path d="M24.86 56H27.64V70H24.64V61.38L20.94 67H19.2L15.5 61.36V70H12.5V56H15.28L20.08 63.28L24.86 56ZM32.7445 70H30.3245V60.4H33.1045V65.8L37.3845 60.4H39.7845V70H37.0245V64.6L32.7445 70ZM44.9209 70H42.1409V60.4H44.9209V64.04H48.8009V60.4H51.5809V70H48.8009V66.36H44.9209V70Z" fill="white"/>
</symbol>
<symbol  viewBox="0 0 58 74" fill="none" xmlns="http://www.w3.org/2000/svg" id="second">
<path d="M17.904 4.36H25.056V25.048H30V31.048H25.056V37H18.192V31.048H1.056V25.096L17.904 4.36ZM18.192 25.048V13.144L8.544 25.048H18.192ZM31.9969 4.312H57.1009V9.496L43.7089 37H35.9329L48.8449 10.504H31.9969V4.312Z" fill="white"/>
<path d="M12.22 63.16C12.22 61.9333 12.4333 60.8333 12.86 59.86C13.3 58.8733 13.8733 58.0867 14.58 57.5C15.3 56.9133 16.1 56.4733 16.98 56.18C17.86 55.8733 18.78 55.72 19.74 55.72C21.2067 55.72 22.54 56.02 23.74 56.62V59.48C22.7933 58.7467 21.6267 58.38 20.24 58.38C18.88 58.38 17.7133 58.7867 16.74 59.6C15.78 60.4 15.3 61.5867 15.3 63.16C15.3 63.9067 15.44 64.5733 15.72 65.16C16 65.7333 16.3733 66.1933 16.84 66.54C17.32 66.8867 17.8467 67.1533 18.42 67.34C19.0067 67.5133 19.6133 67.6 20.24 67.6C21.7867 67.6 22.9867 67.2133 23.84 66.44V69.38C22.6 69.98 21.2467 70.28 19.78 70.28C18.82 70.28 17.9 70.1333 17.02 69.84C16.14 69.5467 15.3333 69.12 14.6 68.56C13.88 68 13.3 67.2533 12.86 66.32C12.4333 65.3867 12.22 64.3333 12.22 63.16ZM25.0892 65.2C25.0892 64.3333 25.2426 63.5667 25.5492 62.9C25.8559 62.22 26.2559 61.6867 26.7492 61.3C27.2559 60.9133 27.7826 60.62 28.3292 60.42C28.8892 60.22 29.4559 60.12 30.0292 60.12C30.9892 60.12 31.8159 60.3 32.5092 60.66C33.2159 61.02 33.7359 61.4867 34.0692 62.06C34.4026 62.62 34.6292 63.26 34.7492 63.98C34.8826 64.6867 34.8492 65.3933 34.6492 66.1H27.8892C28.0359 66.7667 28.4226 67.2667 29.0492 67.6C29.6759 67.92 30.4159 68.08 31.2692 68.08C32.3226 68.08 33.2892 67.8867 34.1692 67.5V69.68C33.2226 70.08 32.0492 70.28 30.6492 70.28C29.0492 70.28 27.7226 69.8333 26.6692 68.94C25.6159 68.0467 25.0892 66.8 25.0892 65.2ZM32.1492 64.3C32.2159 63.86 32.0892 63.4067 31.7692 62.94C31.4492 62.4733 30.9026 62.24 30.1292 62.24C29.5159 62.24 28.9892 62.4267 28.5492 62.8C28.1092 63.16 27.8826 63.66 27.8692 64.3H32.1492ZM39.3077 70H36.5277V60.4H39.3077V63.98H40.4677L42.9077 60.4H46.0277L42.7277 65.14L46.3077 70H43.1877L40.4277 66.2H39.3077V70Z" fill="white"/>
</symbol>

</svg>